<svg xmlns="http://www.w3.org/2000/svg" width="14" height="16" viewBox="0 0 14 16">
  <metadata><?xpacket begin="﻿" id="W5M0MpCehiHzreSzNTczkc9d"?>
<x:xmpmeta xmlns:x="adobe:ns:meta/" x:xmptk="Adobe XMP Core 5.6-c138 79.159824, 2016/09/14-01:09:01        ">
   <rdf:RDF xmlns:rdf="http://www.w3.org/1999/02/22-rdf-syntax-ns#">
      <rdf:Description rdf:about=""/>
   </rdf:RDF>
</x:xmpmeta>
                                                                                                    
                                                                                                    
                                                                                                    
                                                                                                    
                                                                                                    
                                                                                                    
                                                                                                    
                                                                                                    
                                                                                                    
                                                                                                    
                                                                                                    
                                                                                                    
                                                                                                    
                                                                                                    
                                                                                                    
                                                                                                    
                                                                                                    
                                                                                                    
                                                                                                    
                                                                                                    
                           
<?xpacket end="w"?></metadata>
<defs>
    <style>
      .cls-1 {
        fill: #36aeea;
        fill-rule: evenodd;
      }
    </style>
  </defs>
  <path id="Lock_locked" data-name="Lock locked" class="cls-1" d="M404,2823h-2v-2a4,4,0,0,0-8,0v2h-2a1,1,0,0,0-1,1v8a1,1,0,0,0,1,1h12a1,1,0,0,0,1-1v-8A1,1,0,0,0,404,2823Zm-6,6a1,1,0,1,1,1-1A1,1,0,0,1,398,2829Zm2-6h-4v-2a2,2,0,0,1,4,0v2Z" transform="translate(-391 -2817)"/>
</svg>
